<?xml version="1.0" standalone="no"?>
<!DOCTYPE svg PUBLIC "-//W3C//DTD SVG 20010904//EN"
 "http://www.w3.org/TR/2001/REC-SVG-20010904/DTD/svg10.dtd">
<svg version="1.0" xmlns="http://www.w3.org/2000/svg"
 width="157.000000pt" height="157.000000pt" viewBox="0 0 157.000000 157.000000"
 preserveAspectRatio="xMidYMid meet">
<metadata>
Created by potrace 1.11, written by Peter Selinger 2001-2013
</metadata>
<g transform="translate(0.000000,157.000000) scale(0.100000,-0.100000)"
fill="#000000" stroke="none">
<path d="M763 1523 c-3 -10 -14 -29 -24 -43 -23 -34 -66 -142 -86 -215 -16
-61 -26 -242 -14 -260 4 -5 15 -35 25 -65 11 -30 23 -60 27 -66 5 -6 3 -16 -4
-24 -9 -10 -9 -11 1 -6 12 7 32 -30 35 -66 1 -10 4 -18 7 -18 3 0 6 -22 5 -49
0 -27 3 -47 8 -44 4 2 7 -8 7 -24 0 -22 -2 -25 -10 -13 -6 9 -10 10 -10 3 0
-6 4 -14 8 -17 5 -3 8 -20 6 -38 -2 -18 -5 -53 -8 -78 -6 -59 -14 -103 -25
-133 -6 -14 -7 -28 -3 -33 4 -4 -2 -4 -13 0 -15 5 -17 4 -8 -4 11 -12 -5 -74
-41 -152 -27 -59 -66 -157 -66 -166 0 -4 95 -7 210 -7 116 0 210 4 210 8 -1 3
-8 24 -17 44 -9 21 -17 40 -18 43 0 3 -11 25 -24 48 -12 24 -20 50 -17 58 3 8
2 13 -3 9 -7 -4 -38 63 -33 72 1 1 -5 14 -12 29 -8 14 -13 36 -11 50 1 14 -2
21 -8 17 -6 -4 -8 0 -4 10 3 9 2 19 -4 22 -5 4 -7 10 -5 14 3 4 1 13 -4 21 -5
9 -4 20 3 29 9 12 9 13 0 7 -9 -5 -13 0 -14 16 0 13 -3 52 -6 87 -4 52 -3 62
8 55 11 -6 12 -5 3 7 -5 8 -10 21 -9 29 1 8 3 32 3 52 1 20 9 43 17 51 8 9 11
17 6 19 -5 2 -2 20 6 40 8 21 18 36 22 33 4 -2 7 6 6 18 -2 25 14 68 30 79 5
4 6 8 1 8 -5 0 -4 6 2 13 11 13 10 202 -2 249 -27 111 -113 298 -138 298 -5 0
-11 -8 -15 -17z"/>
<path d="M1035 1090 c3 -5 8 -10 11 -10 2 0 4 5 4 10 0 6 -5 10 -11 10 -5 0
-7 -4 -4 -10z"/>
<path d="M469 1053 c-13 -16 -12 -17 4 -4 9 7 17 15 17 17 0 8 -8 3 -21 -13z"/>
<path d="M593 1035 c0 -8 4 -12 9 -9 5 3 6 10 3 15 -9 13 -12 11 -12 -6z"/>
<path d="M946 1008 c3 -5 10 -6 15 -3 13 9 11 12 -6 12 -8 0 -12 -4 -9 -9z"/>
<path d="M1153 1005 c0 -8 4 -12 9 -9 4 3 8 9 8 15 0 5 -4 9 -8 9 -5 0 -9 -7
-9 -15z"/>
<path d="M477 954 c-3 -4 -31 -8 -61 -10 -84 -5 -164 -52 -214 -127 -42 -64
-60 -126 -69 -236 l-5 -64 40 40 c52 51 105 76 162 76 47 0 115 -27 105 -43
-3 -5 0 -12 6 -16 8 -4 9 -3 5 4 -4 7 -3 12 2 12 9 0 52 -55 52 -67 0 -4 7
-21 15 -37 9 -17 17 -44 18 -61 2 -16 5 -35 9 -40 8 -15 4 -188 -6 -203 -4 -7
-6 -16 -3 -19 3 -3 -3 -27 -14 -54 -24 -61 -24 -70 0 -42 10 12 21 20 25 18 3
-3 4 -2 1 1 -4 6 31 62 46 74 3 3 14 22 24 42 9 21 21 35 26 33 4 -3 6 4 4 15
-2 11 0 20 4 20 4 0 8 6 8 13 1 6 9 35 18 62 10 28 20 57 23 65 5 16 9 50 13
112 1 23 6 35 13 31 6 -3 5 0 -1 8 -7 7 -13 17 -13 22 0 4 6 5 13 1 9 -6 9 -4
1 7 -6 8 -12 35 -13 60 0 25 -7 66 -14 90 -8 25 -13 53 -11 62 1 9 -2 15 -7
11 -5 -3 -9 2 -9 10 0 9 -3 16 -7 16 -5 0 -17 13 -28 30 -23 34 -92 73 -129
73 -14 0 -23 3 -20 8 6 10 0 12 -9 3z"/>
<path d="M575 950 c3 -5 8 -10 11 -10 2 0 4 5 4 10 0 6 -5 10 -11 10 -5 0 -7
-4 -4 -10z"/>
<path d="M973 945 c0 -8 4 -12 9 -9 5 3 6 10 3 15 -9 13 -12 11 -12 -6z"/>
<path d="M1061 955 c-1 -6 -21 -17 -45 -24 -25 -7 -47 -20 -50 -28 -4 -9 -13
-13 -23 -9 -10 4 -14 4 -11 1 4 -4 -8 -30 -25 -58 -17 -29 -33 -63 -35 -77 -2
-13 -9 -31 -15 -39 -9 -12 -9 -13 0 -7 9 5 11 2 7 -8 -3 -9 -11 -13 -17 -9 -6
3 -7 1 -3 -6 4 -6 9 -25 11 -42 3 -23 1 -30 -9 -26 -12 5 -12 2 -1 -20 14 -27
10 -57 -8 -46 -6 3 -7 1 -3 -6 4 -6 11 -9 17 -6 5 4 8 -14 6 -39 -1 -24 0 -43
4 -40 6 3 17 -53 22 -108 1 -10 5 -18 10 -18 4 0 6 -4 3 -9 -4 -5 -1 -11 5
-13 6 -2 12 -16 12 -31 0 -15 3 -27 7 -27 12 0 31 -51 24 -63 -4 -7 -3 -9 1
-5 10 10 56 -63 48 -76 -4 -5 -2 -6 3 -3 6 3 19 -8 29 -24 25 -37 49 -40 35
-4 -5 14 -12 36 -14 48 -3 12 -9 36 -14 52 -5 17 -8 77 -6 135 4 123 4 130 16
130 5 0 7 4 4 9 -9 14 5 42 17 34 6 -3 7 -1 3 6 -15 24 64 115 110 127 59 15
154 4 154 -18 0 -5 5 -6 10 -3 6 3 10 1 10 -4 0 -6 6 -11 14 -11 7 0 22 -11
32 -25 10 -14 23 -25 28 -25 5 0 6 37 4 83 -6 91 -30 156 -78 211 -16 18 -26
36 -22 40 4 4 2 6 -3 4 -15 -4 -56 27 -47 37 4 5 2 5 -5 1 -12 -6 -63 12 -63
23 0 4 -31 6 -70 6 -38 0 -72 5 -74 10 -3 6 -5 6 -5 0z"/>
<path d="M627 929 c7 -7 15 -10 18 -7 3 3 -2 9 -12 12 -14 6 -15 5 -6 -5z"/>
<path d="M470 531 c0 -6 4 -13 10 -16 6 -3 7 1 4 9 -7 18 -14 21 -14 7z"/>
<path d="M1260 496 c0 -2 8 -10 18 -17 15 -13 16 -12 3 4 -13 16 -21 21 -21
13z"/>
<path d="M1053 425 c0 -8 4 -12 9 -9 5 3 6 10 3 15 -9 13 -12 11 -12 -6z"/>
</g>
</svg>
